<?xml version="1.0" encoding="UTF-8"?>
<svg version="1.1" xmlns="http://www.w3.org/2000/svg" width="512" height="512">
<path d="M0 0 C5.1788374 2.94503822 10.38132164 5.84762511 15.58251953 8.75292969 C24.54214533 13.76301462 33.48534199 18.80122174 42.41845703 23.85839844 C49.4619861 27.84329913 56.51974793 31.8022515 63.58251953 35.75292969 C65.66719131 36.92083353 67.75182683 38.08880211 69.83642578 39.25683594 C74.02788147 41.60497016 78.22393104 43.94464011 82.42236328 46.28027344 C84.45503433 47.41677945 86.48759092 48.55349018 88.52001953 49.69042969 C89.43654297 50.19767578 90.35306641 50.70492187 91.29736328 51.22753906 C108.84802345 61.07397561 122.11076024 72.3653866 128.32080078 91.99121094 C129.66727048 96.87302672 130.20994161 101.27177264 130.22296143 106.34767151 C130.22741811 107.32143208 130.22741811 107.32143208 130.23196483 108.31486458 C130.24061165 110.48246525 130.24215668 112.65001043 130.24365234 114.81762695 C130.24828351 116.37523007 130.25330857 117.93283206 130.25869751 119.49043274 C130.27179815 123.71807986 130.27826236 127.94571112 130.28270817 132.17337537 C130.28564376 134.81864397 130.28974957 137.46390829 130.29421234 140.10917473 C130.30788354 148.39693638 130.31755102 156.68468818 130.32141423 164.97246033 C130.32588874 174.51770817 130.34340995 184.06281237 130.37241483 193.60801655 C130.39408942 200.99932951 130.40412165 208.39060223 130.40545535 215.7819466 C130.40649961 220.1899032 130.41232571 224.59772471 130.43027496 229.00564766 C130.44685498 233.15812749 130.44886344 237.31037215 130.44013596 241.46287346 C130.43937076 242.9784852 130.44363921 244.4941101 130.45359421 246.00968933 C130.56213934 263.57986071 126.82987404 278.2038021 114.62158203 291.30371094 C113.78369141 292.11195313 112.94580078 292.92019531 112.08251953 293.75292969 C111.54473877 294.28047852 111.00695801 294.80802734 110.45288086 295.3515625 C104.75164741 300.67182255 98.36351462 304.21062316 91.52001953 307.87792969 C90.31642171 308.53293174 89.11346947 309.18912134 87.91113281 309.84643555 C86.07580644 310.84957906 84.24011683 311.85197649 82.40234375 312.85063171 C76.71669185 315.94051686 71.08296276 319.11764336 65.45751953 322.31542969 C57.51280699 326.81915982 49.55345046 331.29576789 41.58251953 335.75292969 C32.63115394 340.75898193 23.69520478 345.79135695 14.77075195 350.84521484 C6.48320567 355.53503893 -1.82569716 360.18632388 -10.14404297 364.82128906 C-16.18257277 368.19340298 -22.15619034 371.65069147 -28.07910156 375.22265625 C-37.03339556 380.05024224 -46.42996245 381.93496676 -56.47998047 382.00292969 C-57.5830957 382.03386719 -57.5830957 382.03386719 -58.70849609 382.06542969 C-69.78957226 382.14152291 -79.25421493 378.56957157 -88.85498047 373.31542969 C-89.8451416 372.7861084 -90.83530273 372.25678711 -91.85546875 371.71142578 C-100.14990673 367.24783191 -108.33331632 362.59117917 -116.48779297 357.87792969 C-122.35152367 354.49161983 -128.25654041 351.18096739 -134.16748047 347.87792969 C-135.21258789 347.29358154 -136.25769531 346.7092334 -137.33447266 346.10717773 C-139.46256245 344.91767277 -141.59081849 343.72846517 -143.71923828 342.53955078 C-173.65324825 325.8176359 -173.65324825 325.8176359 -186.37036133 318.58129883 C-191.23617035 315.81507651 -196.11961717 313.0928779 -201.04638672 310.43652344 C-211.87335534 304.55529262 -221.58802236 298.95458237 -229.91748047 289.75292969 C-230.52205078 289.09164063 -231.12662109 288.43035156 -231.74951172 287.74902344 C-242.32012745 274.9304793 -244.22168499 260.1786303 -244.19213867 244.23413086 C-244.19649244 242.67593645 -244.2016778 241.11774419 -244.20762634 239.55955505 C-244.22095734 235.34864842 -244.22160152 231.13783186 -244.21906304 226.92690825 C-244.21798913 223.40089972 -244.22288751 219.8749091 -244.22766846 216.34890443 C-244.23874366 208.02384894 -244.23921253 199.69883858 -244.2331543 191.3737793 C-244.22711818 182.81060483 -244.23942089 174.24759483 -244.26072437 165.68444842 C-244.27838998 158.31003217 -244.28433385 150.93566804 -244.28108662 143.56123143 C-244.27928122 139.16675897 -244.28183507 134.7724038 -244.29580116 130.37795067 C-244.30845561 126.24181852 -244.30636411 122.10594102 -244.29339027 117.96981239 C-244.29104127 116.46065303 -244.29369829 114.95147532 -244.3020134 113.44233704 C-244.39163872 95.89676734 -240.64641506 81.28229208 -228.45654297 68.20214844 C-227.19970703 66.98978516 -227.19970703 66.98978516 -225.91748047 65.75292969 C-225.37969971 65.22538086 -224.84191895 64.69783203 -224.2878418 64.15429688 C-218.58660835 58.83403682 -212.19847556 55.29523622 -205.35498047 51.62792969 C-204.15138264 50.97292764 -202.94843041 50.31673804 -201.74609375 49.65942383 C-199.91076738 48.65628032 -198.07507777 47.65388289 -196.23730469 46.65522766 C-190.55165667 43.56534462 -184.91783011 40.38837543 -179.29248047 37.19042969 C-173.46247331 33.88351838 -167.62778148 30.58604829 -161.77294922 27.32324219 C-151.40565922 21.54525539 -141.08418382 15.71006713 -130.85498047 9.69042969 C-121.71048227 4.31122442 -112.4550085 -0.82188123 -103.09985352 -5.82519531 C-98.03803653 -8.53584445 -93.064661 -11.31259785 -88.16748047 -14.30957031 C-56.76693476 -33.00147566 -27.91639523 -15.93816314 0 0 Z " fill="#549BFF" transform="translate(312.91748046875,76.2470703125)"/>
<path d="M0 0 C2.46536502 2.46536502 2.99000042 4.50528648 4.0625 7.8125 C4.40410156 8.85019531 4.74570312 9.88789063 5.09765625 10.95703125 C6.57584718 15.94192621 7.12708424 20.38713552 7.14044189 25.59474182 C7.14341302 26.24391553 7.14638414 26.89308925 7.1494453 27.56193489 C7.15809212 29.72953556 7.15963715 31.89708074 7.16113281 34.06469727 C7.16576398 35.62230038 7.17078904 37.17990237 7.17617798 38.73750305 C7.18927862 42.96515018 7.19574283 47.19278143 7.20018864 51.42044568 C7.20312423 54.06571429 7.20723004 56.7109786 7.21169281 59.35624504 C7.22536401 67.6440067 7.23503149 75.93175849 7.2388947 84.21953064 C7.24336921 93.76477848 7.26089042 103.30988268 7.2898953 112.85508686 C7.31156989 120.24639982 7.32160212 127.63767254 7.32293582 135.02901691 C7.32398008 139.43697351 7.32980618 143.84479502 7.34775543 148.25271797 C7.36433545 152.40519781 7.3663439 156.55744246 7.35761642 160.70994377 C7.35685123 162.22555551 7.36111968 163.74118041 7.37107468 165.25675964 C7.47961981 182.82693102 3.74735451 197.45087241 -8.4609375 210.55078125 C-9.29882812 211.35902344 -10.13671875 212.16726563 -11 213 C-11.53778076 213.52754883 -12.07556152 214.05509766 -12.62963867 214.59863281 C-18.33087212 219.91889287 -24.71900491 223.45769347 -31.5625 227.125 C-32.76609782 227.78000205 -33.96905006 228.43619165 -35.17138672 229.09350586 C-37.00671309 230.09664937 -38.8424027 231.0990468 -40.68017578 232.09770203 C-46.36582768 235.18758718 -51.99955677 238.36471367 -57.625 241.5625 C-65.56971254 246.06623013 -73.52906907 250.5428382 -81.5 255 C-90.4513656 260.00605225 -99.38731475 265.03842726 -108.31176758 270.09228516 C-116.59931386 274.78210924 -124.90821669 279.4333942 -133.2265625 284.06835938 C-134.68255859 284.88143555 -134.68255859 284.88143555 -136.16796875 285.7109375 C-137.12751465 286.24557617 -138.08706055 286.78021484 -139.07568359 287.33105469 C-141.08589976 288.47831113 -143.07779404 289.65808694 -145.05322266 290.86425781 C-146.56795166 291.78609863 -146.56795166 291.78609863 -148.11328125 292.7265625 C-149.44999878 293.55921631 -149.44999878 293.55921631 -150.8137207 294.40869141 C-154 296 -154 296 -164 299 C-164 235.97 -164 172.94 -164 108 C-149.645 100.08 -149.645 100.08 -135 92 C-127.11278236 87.62223241 -119.22615345 83.24354101 -111.34277344 78.85888672 C-105.7295386 75.73741651 -100.1146837 72.6188631 -94.5 69.5 C-92.24999232 68.25001382 -89.99999232 67.00001382 -87.75 65.75 C-74.25 58.25 -74.25 58.25 -70.87402344 56.37451172 C-68.62721721 55.12624991 -66.38047227 53.87787776 -64.13378906 52.62939453 C-57.31342947 48.83953685 -50.49084549 45.05372659 -43.66625977 41.27148438 C-40.29930263 39.4023696 -36.9366821 37.52562125 -33.57421875 35.6484375 C-29.18002257 33.19844308 -24.76540318 30.79237161 -20.33203125 28.4140625 C-18.24216774 27.27607796 -16.15232312 26.13805872 -14.0625 25 C-12.62342285 24.24468994 -12.62342285 24.24468994 -11.15527344 23.47412109 C-5.51325173 20.3737819 -2.38694752 18.07158764 0 12 C0.4767609 8.72769829 0.4767609 8.72769829 0.25 5.5625 C0.21390625 4.51191406 0.1778125 3.46132812 0.140625 2.37890625 C0.09421875 1.59386719 0.0478125 0.80882812 0 0 Z " fill="#B9D6FF" transform="translate(436,157)"/>
<path d="M0 0 C1.10592959 3.31778878 0.95147557 6.24498486 0.64453125 9.70703125 C1.22828688 13.47257579 2.51121409 16.17728424 5 19 C8.81887581 21.71722527 12.91036059 23.83782736 17.0625 26 C18.27726492 26.65044845 19.49095185 27.30291369 20.70361328 27.95727539 C23.21938821 29.31282262 25.73954949 30.65963345 28.26318359 32.00048828 C34.01223828 35.06451126 39.68910061 38.2583417 45.375 41.4375 C54.7388325 46.64530959 64.11654263 51.8276781 73.5 57 C86.22872541 64.01629076 98.9378868 71.067318 111.63964844 78.13232422 C115.05276177 80.02932487 118.46754978 81.9232783 121.8828125 83.81640625 C123.03313965 84.45441162 124.1834668 85.09241699 125.36865234 85.74975586 C127.49619265 86.92965746 129.62407331 88.10894578 131.75244141 89.28735352 C142.87372629 95.45801672 153.92642007 101.74102004 165 108 C165 171.03 165 234.06 165 299 C154.86681367 295.62227122 154.86681367 295.62227122 151.703125 293.94140625 C150.98366699 293.56209961 150.26420898 293.18279297 149.52294922 292.79199219 C148.77287598 292.38625977 148.02280273 291.98052734 147.25 291.5625 C146.43418457 291.12711914 145.61836914 290.69173828 144.77783203 290.24316406 C136.95874902 286.03986778 129.26205934 281.62590994 121.5703125 277.1953125 C115.65587292 273.79245539 109.70610734 270.45425671 103.75 267.125 C102.70521484 266.54081299 101.66042969 265.95662598 100.58398438 265.35473633 C98.45556084 264.16508329 96.32697938 262.97571277 94.19824219 261.78662109 C64.26423221 245.06470621 64.26423221 245.06470621 51.54711914 237.82836914 C46.68131011 235.06214682 41.7978633 232.33994822 36.87109375 229.68359375 C26.04412513 223.80236294 16.32945811 218.20165268 8 209 C7.09314453 208.00806641 7.09314453 208.00806641 6.16796875 206.99609375 C-4.40264698 194.17754962 -6.30420452 179.42570062 -6.2746582 163.48120117 C-6.27901197 161.92300677 -6.28419733 160.3648145 -6.29014587 158.80662537 C-6.30347687 154.59571873 -6.30412106 150.38490218 -6.30158257 146.17397857 C-6.30050866 142.64797004 -6.30540704 139.12197942 -6.310188 135.59597474 C-6.32126319 127.27091925 -6.32173206 118.94590889 -6.31567383 110.62084961 C-6.30963771 102.05767515 -6.32194042 93.49466515 -6.3432439 84.93151873 C-6.36090951 77.55710249 -6.36685338 70.18273835 -6.36360615 62.80830175 C-6.36180075 58.41382929 -6.3643546 54.01947411 -6.37832069 49.62502098 C-6.39097515 45.48888883 -6.38888364 41.35301133 -6.37590981 37.21688271 C-6.3735608 35.70772334 -6.37621782 34.19854563 -6.38453293 32.68940735 C-6.44398471 21.0507843 -5.0511261 10.58331182 0 0 Z " fill="#B9D6FF" transform="translate(75,157)"/>
</svg>
